<svg xmlns="http://www.w3.org/2000/svg" width="1200" height="760" viewBox="0 0 1200 760" role="img" aria-label="Seeds of Change newsletter cover">
  <defs>
    <linearGradient id="bg" x1="0" y1="0" x2="1" y2="1">
      <stop offset="0" stop-color="#064E3B"/>
      <stop offset="0.58" stop-color="#047857"/>
      <stop offset="1" stop-color="#10B981"/>
    </linearGradient>
    <radialGradient id="sun" cx="50%" cy="50%" r="50%">
      <stop offset="0" stop-color="#D1FAE5"/>
      <stop offset="1" stop-color="#D1FAE5" stop-opacity="0"/>
    </radialGradient>
  </defs>
  <rect width="1200" height="760" fill="url(#bg)"/>
  <circle cx="940" cy="108" r="180" fill="url(#sun)" opacity=".65"/>
  <path d="M0 570c170-74 297-76 452-14 147 58 296 62 442-5 130-60 214-62 306-18v227H0z" fill="#022C22" opacity=".42"/>
  <path d="M0 622c165-55 320-62 468-19 141 41 280 42 429 2 133-36 226-30 303 2v153H0z" fill="#ECFDF5" opacity=".16"/>
  <g transform="translate(106 148)" fill="none" stroke="#D1FAE5" stroke-width="20" stroke-linecap="round" stroke-linejoin="round" opacity=".92">
    <path d="M210 342C210 216 292 104 428 62"/>
    <path d="M210 342c-62-92-126-148-192-168 32 106 96 164 192 168z"/>
    <path d="M246 232c-18-78 8-148 80-210 20 94-6 164-80 210z"/>
    <path d="M316 154c64-46 137-58 219-36-60 78-133 90-219 36z"/>
    <path d="M260 298c78-56 166-70 264-42-75 91-163 105-264 42z"/>
  </g>
  <rect x="86" y="78" width="176" height="52" rx="26" fill="#FFFFFF" opacity=".94"/>
  <text x="174" y="112" text-anchor="middle" font-family="Arial, sans-serif" font-size="20" font-weight="700" fill="#064E3B">K.GIRDHARLAL</text>
  <text x="86" y="642" font-family="Arial, sans-serif" font-size="26" font-weight="700" fill="#D1FAE5" letter-spacing="5">ISSUE 01 / FY 2026-27</text>
  <text x="86" y="700" font-family="Arial, sans-serif" font-size="70" font-weight="800" fill="#FFFFFF">Seeds of Change</text>
</svg>
